<svg width="1920" height="1027" viewBox="0 0 1920 1027" fill="none" xmlns="http://www.w3.org/2000/svg">
<g clip-path="url(#clip0_8_346)">
<rect width="1920" height="1027" fill="#F9F8FD"/>
<g filter="url(#filter0_f_8_346)">
<ellipse cx="263.5" cy="20" rx="241.5" ry="187" fill="#B294FA"/>
</g>
<g opacity="0.3">
<path d="M81.6565 516.641C67.2005 520.514 53.16 523.92 39.6084 526.833C-34.7915 542.838 -92.0774 543.833 -130.659 529.788C-170.13 515.425 -188.898 485.457 -186.445 440.713C-178.994 304.881 -159.589 216.731 -146.749 158.405C-140.969 132.153 -136.404 111.414 -135.103 95.7283C-132.942 69.6234 -104.684 28.1645 -61.3618 -12.4748C-14.7389 -56.2053 38.8169 -89.4729 85.5807 -103.744C150.075 -123.428 215.78 -161.106 259.54 -189.249C310.517 -222.032 361.886 -261.443 396.95 -294.675C419.584 -316.129 446.572 -323.883 474.989 -317.103C524.191 -305.358 571.314 -251.647 597.964 -176.935C610.592 -141.524 623.655 -104.902 634.014 -68.9641C645.472 -29.2287 652.284 5.37885 654.846 36.8326C657.898 74.3897 655.138 108.562 646.408 141.295C636.658 177.84 619.735 211.808 594.671 245.142C551.867 302.072 414.493 387.755 260.61 453.508C197.657 480.404 136.64 501.902 81.655 516.635L81.6565 516.641ZM435.589 -315.228C422.222 -311.647 409.591 -304.355 398.098 -293.46C362.961 -260.157 311.501 -220.676 260.446 -187.842C216.597 -159.647 150.747 -121.884 86.0668 -102.145C39.543 -87.9435 -13.7807 -54.8185 -60.2231 -11.2513C-103.256 29.1151 -131.313 70.1639 -133.442 95.8751C-134.752 111.678 -139.328 132.46 -145.12 158.774C-157.951 217.05 -177.333 305.114 -184.78 440.813C-187.188 484.735 -168.788 514.146 -130.086 528.233C-91.806 542.162 -34.8303 541.147 39.2608 525.213C104.238 511.239 180.552 485.918 259.955 451.988C413.602 386.339 550.695 300.874 593.342 244.153C618.274 210.993 635.105 177.216 644.8 140.875C653.483 108.328 656.229 74.3427 653.188 36.9779C647.488 -33.1248 621.512 -105.943 596.397 -176.366C569.938 -250.555 523.271 -303.859 474.604 -315.471C461.166 -318.68 448.055 -318.563 435.59 -315.223L435.589 -315.228Z" fill="#CBB9FF"/>
<path d="M83.3517 487.166C71.9168 490.23 60.7797 492.967 49.9764 495.362C-18.1552 510.463 -70.6002 511.752 -105.913 499.194C-141.609 486.496 -158.744 459.764 -156.846 419.736C-152.001 298.796 -135.555 214.991 -124.676 159.541C-119.568 133.508 -115.536 112.948 -114.306 97.0851C-112.308 71.4434 -86.4139 31.8708 -46.7279 -6.19678C-4.23283 -46.9594 45.4746 -78.3626 89.6491 -92.3598C149.062 -110.808 209.682 -145.124 250.069 -170.656C297.519 -200.656 343.77 -235.276 376.965 -265.651C397.918 -284.816 422.795 -291.522 448.916 -285.045C494.256 -273.806 537.589 -224.384 562.001 -156.054C585.094 -91.6114 608.977 -24.973 614.233 40.7032C617.003 75.2961 614.448 106.799 606.422 137.01C597.473 170.709 581.967 202.044 559.038 232.806C519.841 285.747 393.783 365.542 252.497 426.857C192.881 452.726 135.113 473.302 83.3477 487.173L83.3517 487.166ZM411.517 -283.472C399.61 -280.281 388.338 -273.928 378.027 -264.499C344.767 -234.067 298.436 -199.379 250.912 -169.336C210.44 -143.752 149.695 -109.369 90.124 -90.8665C46.172 -76.9405 -3.31264 -45.6716 -45.638 -5.06945C-85.0587 32.7432 -110.768 71.9329 -112.738 97.2051C-113.972 113.161 -118.017 133.759 -123.13 159.839C-134.003 215.247 -150.429 298.973 -155.269 419.803C-157.131 459.067 -140.348 485.279 -105.377 497.717C-70.3502 510.174 -18.1926 508.864 49.6464 493.829C109.261 480.62 179.193 456.957 251.885 425.411C392.946 364.197 518.737 284.612 557.791 231.865C580.608 201.265 596.023 170.103 604.921 136.602C612.901 106.564 615.44 75.2379 612.682 40.8198C607.441 -24.6533 583.596 -91.1927 560.534 -155.54C536.294 -223.381 493.385 -272.423 448.543 -283.538C435.798 -286.696 423.343 -286.646 411.516 -283.477L411.517 -283.472Z" fill="#CBB9FF"/>
<path d="M85.1584 457.72C76.6909 459.988 68.4154 462.051 60.3371 463.905C-1.52484 478.108 -49.1357 479.688 -81.17 468.613C-113.089 457.581 -128.589 434.077 -127.236 398.753C-124.959 291.924 -111.905 215.446 -102.371 159.61C-98.0442 134.269 -94.631 114.253 -93.4942 98.4276C-91.6313 72.8622 -68.6727 36.0932 -32.0803 0.0670536C6.30459 -37.7266 52.1637 -67.2655 93.7327 -80.984C192.207 -112.186 305.118 -191.164 356.991 -236.635C376.262 -253.51 399.038 -259.171 422.869 -253C464.342 -242.264 503.877 -197.122 526.05 -135.192C546.109 -79.5391 568.837 -16.4586 573.633 44.5598C576.116 76.1899 573.771 105.022 566.455 132.709C558.302 163.563 544.224 192.264 523.419 220.456C505.557 245.016 468.698 275.54 416.832 308.717C367.013 340.586 305.767 373.076 244.389 400.205C188.148 425.061 133.651 444.726 85.1638 457.718L85.1584 457.72ZM387.407 -251.733C376.97 -248.936 367.063 -243.517 357.952 -235.537C305.991 -189.985 192.861 -110.861 94.1803 -79.5926C52.823 -65.9423 7.17207 -36.5281 -31.0591 1.10937C-67.401 36.8902 -90.1995 73.3118 -92.0399 98.5321C-93.181 114.428 -96.603 134.475 -100.936 159.858C-110.458 215.65 -123.5 292.068 -125.78 398.799C-127.104 433.415 -111.936 456.433 -80.6943 467.233C-48.9203 478.217 -1.58465 476.618 60.0062 462.477C114.256 450.021 177.814 428.025 243.789 398.866C305.105 371.765 366.275 339.313 416.035 307.482C467.744 274.405 504.467 244.015 522.227 219.592C542.928 191.548 556.928 163.006 565.027 132.339C572.3 104.813 574.635 76.1384 572.164 44.6778C567.386 -16.1444 544.689 -79.1298 524.659 -134.693C502.647 -196.172 463.5 -240.964 422.489 -251.582C410.407 -254.712 398.6 -254.732 387.401 -251.731L387.407 -251.733Z" fill="#CBB9FF"/>
<path d="M87.1011 428.311C81.5259 429.805 76.0554 431.196 70.6721 432.484C15.0783 445.782 -27.6901 447.663 -56.451 438.072C-84.5872 428.688 -98.4423 408.403 -97.635 377.782C-97.9373 284.08 -87.482 211.166 -79.8458 157.93C-76.5554 134.988 -73.7142 115.177 -72.6929 99.7784C-70.9909 74.6641 -50.3357 39.7305 -17.448 6.34059C16.8509 -28.4791 58.8587 -56.1643 97.8048 -69.6053C136.759 -82.2439 182.86 -104.331 231.141 -133.485C269.891 -156.884 308.477 -183.905 337.01 -207.617C354.597 -222.214 375.285 -226.826 396.834 -220.946C434.428 -210.694 470.158 -169.837 490.085 -114.315C511.211 -56.0978 529.022 -3.66392 533.019 48.4314C535.22 77.0973 533.076 103.267 526.47 128.431C519.117 156.432 506.463 182.504 487.782 208.128C471.619 230.831 438.348 258.968 391.563 289.496C346.805 318.7 291.648 348.569 236.248 373.602C183.423 397.468 132.244 416.233 87.0947 428.33L87.1011 428.311ZM363.248 -220.021C354.292 -217.621 345.771 -213.125 337.876 -206.574C309.297 -182.82 270.649 -155.753 231.843 -132.322C183.474 -103.116 137.276 -80.9803 98.2359 -68.3186C59.4962 -54.9444 17.6789 -27.385 -16.4742 7.29216C-49.1405 40.4562 -69.6515 75.0695 -71.3291 99.8669C-72.3536 115.318 -75.1998 135.153 -78.4951 158.12C-86.1253 211.314 -96.5735 284.169 -96.2685 377.795C-97.0596 407.768 -83.5191 427.609 -56.0157 436.778C-27.4947 446.289 15.0229 444.395 70.363 431.159C119.258 419.454 176.43 399.123 235.698 372.342C291.036 347.337 346.129 317.507 390.827 288.337C437.47 257.904 470.613 229.888 486.683 207.314C505.268 181.825 517.849 155.904 525.159 128.069C531.725 103.054 533.856 77.0316 531.669 48.523C527.684 -3.39742 509.904 -55.7362 488.813 -113.865C469.031 -168.977 433.653 -209.51 396.482 -219.645C385.046 -222.764 373.85 -222.867 363.257 -220.029L363.248 -220.021Z" fill="#CBB9FF"/>
<path d="M89.224 398.97C86.4498 399.713 83.7074 400.425 80.9861 401.108C31.662 413.509 -6.27077 415.685 -31.7596 407.574C-56.1106 399.825 -68.3183 382.747 -68.0342 356.806C-71.0491 275.003 -62.9937 204.679 -57.1115 153.333C-54.7793 132.975 -52.7622 115.39 -51.8957 101.131C-50.3275 76.0752 -32.436 43.8129 -2.81453 12.6141C27.4307 -19.2403 65.5848 -45.0597 101.874 -58.2198C174.31 -82.3927 264.175 -137.566 317.025 -178.598C332.947 -190.932 351.553 -194.493 370.83 -188.895C404.526 -179.109 436.444 -142.54 454.123 -93.4503C472.274 -43.8485 488.856 4.62197 492.408 52.2855C494.325 77.9818 492.387 101.487 486.491 124.128C479.94 149.283 468.706 172.716 452.156 195.775C437.693 216.62 408.001 242.384 366.3 270.268C326.603 296.811 277.526 324.063 228.11 347.004C178.755 369.912 130.95 387.79 89.2255 398.975L89.224 398.97ZM339.024 -188.343C331.576 -186.347 324.451 -182.76 317.802 -177.611C264.871 -136.517 174.852 -81.2507 102.294 -57.0393C66.1988 -43.9485 28.2206 -18.2452 -1.89334 13.4763C-31.3175 44.4671 -49.079 76.4417 -50.6278 101.205C-51.4978 115.494 -53.5161 133.096 -55.8493 153.472C-61.7308 204.778 -69.7777 275.047 -66.7679 356.789C-67.0429 382.141 -55.1344 398.81 -31.3686 406.372C-6.106 414.411 31.5949 412.228 80.6868 399.884C124.221 388.926 175.022 370.257 227.583 345.853C276.937 322.94 325.956 295.726 365.603 269.214C407.178 241.415 436.752 215.768 451.132 195.043C467.601 172.11 478.767 148.81 485.278 123.809C491.142 101.303 493.064 77.9346 491.162 52.3781C487.623 4.87187 471.066 -43.5075 452.95 -93.021C435.405 -141.739 403.814 -178.011 370.493 -187.684C359.666 -190.828 349.056 -191.019 339.032 -188.333L339.024 -188.343Z" fill="#CBB9FF"/>
<path d="M91.5906 369.707L91.2847 369.789C48.2317 381.296 15.1345 383.768 -7.08096 377.142C-27.651 371.011 -38.197 357.109 -38.4242 335.828C-44.5268 264.523 -38.5962 194.855 -34.2651 143.987C-32.909 128.056 -31.735 114.301 -31.0801 102.471C-29.6707 77.8322 -14.0253 47.3613 11.832 18.8778C38.0625 -10.0161 72.3722 -33.9778 105.961 -46.851C137.172 -57.6276 172.913 -74.2725 212.216 -96.3197C241.779 -112.907 272.7 -132.323 297.058 -149.596C311.323 -159.676 327.859 -162.182 344.894 -156.839C374.68 -147.5 402.758 -115.218 418.171 -72.5887C433.494 -31.1591 448.706 12.9088 451.808 56.1419C453.436 78.8754 451.707 99.7042 446.519 119.834C440.768 142.137 430.958 162.941 416.531 183.426C391.226 221.077 312.221 276.15 219.95 320.458C174.151 342.453 129.775 359.475 91.5906 369.707ZM314.687 -156.715C308.768 -155.13 303.078 -152.433 297.72 -148.647C273.333 -131.355 242.368 -111.91 212.775 -95.3086C173.417 -73.2295 137.608 -56.5605 106.349 -45.7655C72.9443 -32.9588 38.7983 -9.11564 12.6844 19.655C-12.9995 47.9484 -28.5307 78.1588 -29.9296 102.537C-30.587 114.378 -31.7581 128.145 -33.1181 144.082C-37.4486 194.909 -43.3721 264.518 -37.2732 335.766C-37.0479 356.525 -26.7802 370.054 -6.75321 376.026C15.255 382.587 48.1393 380.114 90.983 368.663L91.2889 368.581C129.403 358.368 173.706 341.371 219.443 319.405C311.545 275.176 390.358 220.263 415.569 182.758C429.922 162.38 439.673 141.7 445.391 119.532C450.546 99.5327 452.266 78.8212 450.649 56.2168C447.559 13.1356 432.371 -30.8411 417.08 -72.1985C401.783 -114.497 373.99 -146.511 344.544 -155.74C334.278 -158.96 324.189 -159.267 314.696 -156.724L314.687 -156.715Z" fill="#CBB9FF"/>
<path d="M94.1298 340.633C60.9467 349.524 35.211 351.61 17.5619 346.829C0.780296 342.281 -8.09622 331.54 -8.82444 314.892C-18.9263 252.744 -14.6822 180.109 -11.5838 127.066C-11.0997 118.742 -10.6402 110.884 -10.2833 103.824C-9.00555 79.2081 4.04637 51.271 26.4651 25.1512C49.0744 -1.18055 78.7501 -22.7111 110.028 -35.4709C131.904 -43.3552 191.931 -67.4099 277.078 -120.578C289.705 -128.421 304.207 -129.87 319.019 -124.753C344.851 -115.832 369.063 -87.8464 382.204 -51.7226C394.847 -17.9992 408.554 21.2253 411.192 60.0027C413.984 100.986 404.072 137.316 380.895 171.081C369.816 188.243 347.278 209.281 315.735 231.915C285.692 253.469 249.741 274.934 211.77 293.987C172.555 313.66 134.444 329.078 101.554 338.569C99.0393 339.295 96.5607 339.982 94.1245 340.634L94.1298 340.633ZM290.203 -125.169C285.856 -124.005 281.649 -122.17 277.64 -119.682C264.017 -111.176 236.237 -94.2913 203.241 -76.8016C168.6 -58.4343 137.372 -44.1996 110.413 -34.4877C79.3057 -21.7968 49.7737 -0.37377 27.2756 25.8363C5.01016 51.7771 -7.95255 79.4891 -9.21798 103.871C-9.57489 110.932 -10.033 118.795 -10.5157 127.125C-13.6134 180.127 -17.8543 252.71 -7.76363 314.752L-7.75856 314.813C-7.06553 330.965 1.54838 341.391 17.8453 345.805C36.3377 350.814 65.1868 347.963 101.269 337.548C134.1 328.073 172.144 312.684 211.303 293.037C249.223 274.01 285.13 252.574 315.131 231.054C346.568 208.5 369.006 187.558 380.026 170.498C403.071 136.929 412.919 100.811 410.149 60.081C407.52 21.4449 393.841 -17.6953 381.224 -51.3451C368.187 -87.1865 344.226 -114.923 318.685 -123.744C308.899 -127.127 299.247 -127.581 290.216 -125.161L290.203 -125.169Z" fill="#CBB9FF"/>
<path d="M97.7611 311.623C74.1991 317.936 55.1631 319.698 42.1857 316.705C29.1528 313.698 21.954 306.042 20.7827 293.943C4.49071 240.073 8.717 145.543 10.5169 105.169C12.8568 54.7256 55.4531 1.56946 114.101 -24.0923C161.373 -42.0686 215.296 -69.9525 247.514 -86.6076C250.935 -88.3745 254.148 -90.0342 257.114 -91.5645C268.135 -97.2013 280.651 -97.561 293.289 -92.615C315.115 -84.0739 335.402 -60.4097 346.244 -30.8527C357.67 -0.93537 368.524 31.2443 370.583 63.8673C372.779 98.6773 364.501 129.708 345.266 158.739C326.796 188.886 271.188 231.622 203.597 267.605C171.096 284.905 139.364 298.694 111.83 307.485C106.982 309.031 102.286 310.416 97.7572 311.63L97.7611 311.623ZM265.457 -93.7598C262.747 -93.0337 260.11 -92.0167 257.55 -90.7101C254.582 -89.1852 251.374 -87.5269 247.956 -85.7547C215.722 -69.0899 161.77 -41.1867 114.466 -23.2018C56.158 2.31151 13.8026 55.1215 11.4784 105.216C9.67384 145.551 5.45176 240.011 21.7167 293.716L21.7411 293.807C22.8502 305.48 29.7993 312.869 42.402 315.773C57.7086 319.303 81.6204 316.12 111.545 306.573C139.027 297.802 170.709 284.037 203.153 266.764C270.597 230.855 326.064 188.255 344.463 158.23C387.176 93.7681 368.321 29.6495 345.353 -30.5049C334.599 -59.821 314.519 -83.2706 292.944 -91.7123C283.506 -95.4067 274.153 -96.0784 265.465 -93.7506L265.457 -93.7598Z" fill="#CBB9FF"/>
<path d="M101.982 283.116C87.5798 286.975 75.5725 288.353 66.8659 286.939C57.4904 285.412 51.9513 280.73 50.4043 273.025C41.8059 259.48 35.9133 234.033 32.8813 197.39C30.6735 170.691 30.1039 137.572 31.3244 106.518C33.3565 56.6862 65.8251 12.1166 118.181 -12.7096C136.823 -20.3195 156.122 -28.6339 174.787 -36.6751C198.928 -47.0742 221.729 -56.8904 237.155 -62.5523C250.155 -67.2654 265.025 -64.0782 279.023 -53.5834C292.294 -43.6351 303.683 -27.7463 310.287 -9.98934C326.144 30.4522 329.138 52.7855 329.978 67.7254C331.586 96.3488 324.931 122.083 309.642 146.39C294.502 172.933 250.778 209.324 195.531 241.344C160.241 261.799 127.386 276.314 101.983 283.121L101.982 283.116ZM240.273 -62.635C239.324 -62.3805 238.385 -62.0831 237.452 -61.7468C222.046 -56.0959 199.26 -46.2841 175.13 -35.8878C156.46 -27.8453 137.154 -19.5347 118.528 -11.9291C66.4892 12.749 34.1992 57.0408 32.1833 106.547C30.9663 137.571 31.5312 170.651 33.7357 197.316C36.7584 233.881 42.629 259.225 51.1725 272.629L51.2141 272.699L51.2342 272.774C52.6785 280.139 57.9799 284.62 67.0014 286.093C90.8773 289.987 139.963 272.554 195.095 240.599C250.219 208.653 293.826 172.384 308.903 145.951C324.105 121.788 330.712 96.221 329.118 67.7777C327.529 39.4596 317.79 11.5091 309.48 -9.67532C302.936 -27.2933 291.648 -43.0424 278.507 -52.8933C265.754 -62.4519 252.295 -65.8503 240.275 -62.6296L240.273 -62.635Z" fill="#CBB9FF"/>
<path d="M107.42 255.569C101.464 257.165 96.2911 257.971 92.0926 257.906C85.9519 257.805 81.9098 255.877 80.0815 252.166C67.0706 246.751 60.2252 218.37 56.7709 195.477C52.8772 169.655 51.1415 136.905 52.1231 107.858C52.9997 82.8617 58.9665 61.9662 70.3687 43.9701C82.0138 25.5929 98.9841 10.7767 122.252 -1.33643C158.077 -17.4752 195.346 -30.1107 217.215 -33.534C227.875 -35.1548 239.748 -31.1531 250.645 -22.2752C260.836 -13.9671 269.468 -1.88505 274.32 10.8766C287.987 44.3483 300.302 88.5893 274.01 134.038C262.304 156.805 230.181 187.082 188.093 215.001C157.334 235.409 127.806 250.107 107.415 255.571L107.42 255.569ZM198.681 -28.6769C177.303 -22.9487 149.536 -12.7962 122.589 -0.656807C99.4617 11.3786 82.5897 26.1109 71.0168 44.3711C59.6867 62.2502 53.7556 83.0212 52.8875 107.877C51.0427 162.165 58.3942 242.617 80.5045 251.513L80.6402 251.568L80.7044 251.7C82.365 255.215 86.202 257.043 92.1055 257.139C110.544 257.439 148.057 240.647 187.679 214.359C229.665 186.508 261.697 156.341 273.351 133.663C299.486 88.4861 287.222 44.4556 273.621 11.1444L273.618 11.1336C268.81 -1.50762 260.26 -13.4792 250.165 -21.7042C239.437 -30.449 227.776 -34.387 217.331 -32.8008C211.961 -31.9594 205.659 -30.5582 198.678 -28.6876L198.681 -28.6769Z" fill="#CBB9FF"/>
<path d="M116.127 230.647C113.556 231.336 111.467 231.545 109.949 231.222C105.828 232.993 101.883 232.63 98.2256 230.162C87.5198 222.94 81.3751 199.429 78.1024 180.969C74.2082 159.009 72.2812 132.178 72.9379 109.194C73.6954 83.1949 77.422 65.0143 85.0226 50.2378C93.1257 34.4819 106.26 21.705 126.344 10.0311C149.605 -2.08601 177.459 -7.79112 197.312 -4.50821C215.129 -1.48419 232.181 16.2889 238.371 31.7262C252.231 63.3418 252.237 93.6069 238.396 121.669C233.482 132.95 224.543 145.735 211.843 159.66C200.844 171.715 187.304 184.262 172.667 195.942C149.76 214.228 127.918 227.476 116.129 230.635L116.127 230.647ZM109.881 230.539L109.985 230.563C111.444 230.902 113.473 230.703 115.979 230.031C141.929 223.078 218.759 165.082 237.791 121.406C251.55 93.5096 251.537 63.4357 237.754 32.0006L237.751 31.9899C231.629 16.7184 214.783 -0.862964 197.189 -3.84904C177.469 -7.10997 149.774 -1.43046 126.645 10.6171C106.685 22.2175 93.6354 34.9027 85.5883 50.5459C78.0374 65.2287 74.3335 83.3227 73.577 109.218C72.921 132.161 74.8512 158.94 78.7353 180.862C81.9857 199.196 88.0668 222.535 98.5764 229.626C102.065 231.978 105.833 232.302 109.771 230.58L109.869 230.537L109.881 230.539Z" fill="#CBB9FF"/>
<path d="M129.075 217.282C126.505 217.971 123.999 217.826 121.57 216.834C115.483 214.356 106.824 205.2 100.123 175.683C95.6314 155.895 93.2431 131.549 93.7308 110.553C94.3059 85.7406 94.9935 69.7191 99.6522 56.5411C104.47 42.9066 113.379 32.733 130.412 21.4342C139.797 15.2071 149.802 13.4171 160.14 16.1119C182.495 21.9483 199.406 46.77 202.395 52.6007C207.976 63.4945 209.51 76.8579 206.948 92.3243C204.741 105.638 199.514 120.537 191.407 136.622C176.754 165.689 155.072 193.634 139.669 210.093C136.043 213.967 132.5 216.37 129.076 217.288L129.075 217.282ZM142.205 16.5962C138.288 17.6458 134.458 19.4075 130.719 21.8922C113.799 33.1204 104.948 43.2095 100.173 56.7234C95.5465 69.8295 94.8581 85.8053 94.2862 110.565C93.3973 148.845 102.674 208.536 121.779 216.324C127.203 218.537 133.082 216.312 139.257 209.715C154.634 193.286 176.278 165.392 190.903 136.372C198.984 120.34 204.196 105.491 206.389 92.2329C208.931 76.8867 207.417 63.6386 201.894 52.8556C198.929 47.0703 182.147 22.4322 159.992 16.6517C153.926 15.0704 147.975 15.0559 142.196 16.6044L142.205 16.5962Z" fill="#CBB9FF"/>
</g>
<g filter="url(#filter1_d_8_346)">
<circle cx="1580.5" cy="230.5" r="19.5" fill="url(#paint0_linear_8_346)"/>
</g>
<g filter="url(#filter2_d_8_346)">
<ellipse cx="1668" cy="667" rx="13" ry="13" transform="rotate(90 1668 667)" fill="url(#paint1_linear_8_346)"/>
</g>
<g filter="url(#filter3_d_8_346)">
<circle cx="125" cy="155" r="10" transform="rotate(90 125 155)" fill="url(#paint2_linear_8_346)"/>
</g>
<g filter="url(#filter4_d_8_346)">
<ellipse cx="333" cy="279.5" rx="7" ry="7.5" fill="url(#paint3_linear_8_346)"/>
</g>
<g filter="url(#filter5_f_8_346)">
<ellipse cx="1506.99" cy="29.3692" rx="108.5" ry="192.5" transform="rotate(-90.259 1506.99 29.3692)" fill="#5258EC"/>
</g>
<g opacity="0.3">
<path d="M1702.54 979.558C1686.75 983.789 1671.42 987.509 1656.61 990.69C1575.35 1008.17 1512.78 1009.26 1470.65 993.918C1427.53 978.23 1407.04 945.499 1409.71 896.629C1417.85 748.271 1439.05 651.992 1453.07 588.288C1459.38 559.615 1464.37 536.964 1465.79 519.831C1468.15 491.319 1499.02 446.037 1546.33 401.65C1597.26 353.887 1655.75 317.552 1706.83 301.964C1777.27 280.466 1849.03 239.313 1896.83 208.575C1952.5 172.768 2008.61 129.723 2046.91 93.4266C2071.63 69.9944 2101.11 61.5248 2132.14 68.9309C2185.88 81.7583 2237.35 140.422 2266.46 222.024C2280.25 260.7 2294.52 300.699 2305.83 339.952C2318.35 383.351 2325.79 421.15 2328.59 455.504C2331.92 496.525 2328.91 533.849 2319.37 569.6C2308.72 609.516 2290.24 646.616 2262.86 683.023C2216.11 745.203 2066.07 838.787 1898 910.604C1829.24 939.98 1762.59 963.461 1702.54 979.553L1702.54 979.558ZM2089.11 70.9779C2074.51 74.8898 2060.72 82.8544 2048.16 94.7539C2009.79 131.128 1953.58 174.25 1897.82 210.111C1849.92 240.907 1778 282.152 1707.36 303.711C1656.54 319.222 1598.3 355.402 1547.58 402.986C1500.58 447.075 1469.93 491.909 1467.61 519.992C1466.18 537.252 1461.18 559.95 1454.85 588.69C1440.84 652.341 1419.67 748.526 1411.53 896.738C1408.9 944.71 1429 976.833 1471.27 992.219C1513.08 1007.43 1575.31 1006.32 1656.23 988.922C1727.2 973.659 1810.56 946.003 1897.28 908.944C2065.1 837.241 2214.83 743.895 2261.41 681.943C2288.64 645.725 2307.02 608.834 2317.61 569.141C2327.1 533.593 2330.1 496.474 2326.78 455.663C2320.55 379.096 2292.18 299.563 2264.75 222.646C2235.85 141.616 2184.88 83.3961 2131.72 70.7131C2117.05 67.2083 2102.73 67.3357 2089.11 70.9838L2089.11 70.9779Z" fill="#CBB9FF"/>
<path d="M1704.39 947.366C1691.9 950.712 1679.74 953.702 1667.94 956.317C1593.52 972.811 1536.24 974.219 1497.67 960.503C1458.69 946.635 1439.97 917.437 1442.04 873.718C1447.34 741.626 1465.3 650.092 1477.18 589.529C1482.76 561.096 1487.16 538.639 1488.51 521.313C1490.69 493.307 1518.97 450.085 1562.32 408.507C1608.73 363.986 1663.02 329.687 1711.27 314.399C1776.16 294.249 1842.37 256.769 1886.48 228.882C1938.31 196.116 1988.83 158.303 2025.08 125.127C2047.97 104.195 2075.14 96.8707 2103.67 103.944C2153.19 116.22 2200.52 170.2 2227.18 244.831C2252.4 315.216 2278.49 388 2284.23 459.732C2287.25 497.515 2284.46 531.923 2275.7 564.92C2265.92 601.726 2248.99 635.952 2223.94 669.55C2181.13 727.373 2043.45 814.526 1889.13 881.495C1824.02 909.75 1760.93 932.223 1704.39 947.373L1704.39 947.366ZM2062.82 105.663C2049.81 109.148 2037.5 116.087 2026.24 126.385C1989.91 159.624 1939.31 197.511 1887.4 230.324C1843.2 258.267 1776.85 295.821 1711.79 316.03C1663.78 331.24 1609.74 365.392 1563.51 409.739C1520.45 451.038 1492.37 493.842 1490.22 521.444C1488.87 538.871 1484.45 561.37 1478.87 589.855C1466.99 650.372 1449.05 741.818 1443.77 873.79C1441.73 916.676 1460.06 945.305 1498.26 958.89C1536.52 972.495 1593.48 971.064 1667.58 954.644C1732.69 940.216 1809.07 914.371 1888.47 879.917C2042.54 813.058 2179.93 726.133 2222.58 668.522C2247.5 635.1 2264.34 601.065 2274.06 564.474C2282.77 531.667 2285.55 497.452 2282.54 459.86C2276.81 388.349 2250.77 315.673 2225.58 245.392C2199.1 171.295 2152.24 117.731 2103.26 105.591C2089.34 102.141 2075.74 102.196 2062.82 105.657L2062.82 105.663Z" fill="#CBB9FF"/>
<path d="M1706.36 915.204C1697.12 917.682 1688.08 919.934 1679.25 921.96C1611.69 937.472 1559.69 939.198 1524.7 927.101C1489.83 915.053 1472.91 889.381 1474.38 850.799C1476.87 734.12 1491.13 650.589 1501.54 589.604C1506.27 561.926 1510 540.065 1511.24 522.78C1513.27 494.857 1538.35 454.697 1578.31 415.349C1620.24 374.07 1670.33 341.807 1715.73 326.823C1823.28 292.744 1946.61 206.483 2003.26 156.819C2024.31 138.388 2049.19 132.205 2075.22 138.945C2120.51 150.67 2163.69 199.975 2187.91 267.617C2209.82 328.402 2234.65 397.299 2239.88 463.944C2242.59 498.491 2240.03 529.982 2232.04 560.223C2223.14 593.921 2207.76 625.269 2185.04 656.061C2165.53 682.886 2125.27 716.224 2068.62 752.461C2014.21 787.269 1947.32 822.755 1880.28 852.385C1818.85 879.533 1759.33 901.012 1706.37 915.202L1706.36 915.204ZM2036.48 140.329C2025.09 143.384 2014.26 149.302 2004.31 158.019C1947.56 207.771 1824 294.191 1716.22 328.343C1671.05 343.252 1621.19 375.379 1579.43 416.487C1539.74 455.567 1514.84 495.348 1512.83 522.894C1511.58 540.255 1507.84 562.151 1503.11 589.874C1492.71 650.812 1478.46 734.276 1475.97 850.85C1474.53 888.657 1491.09 913.799 1525.22 925.594C1559.92 937.591 1611.62 935.845 1678.89 920.399C1738.14 906.795 1807.56 882.771 1879.62 850.923C1946.59 821.323 2013.4 785.878 2067.75 751.112C2124.23 714.984 2164.34 681.793 2183.74 655.117C2206.35 624.487 2221.64 593.313 2230.48 559.818C2238.43 529.753 2240.98 498.435 2238.28 464.073C2233.06 397.642 2208.27 328.849 2186.39 268.162C2162.35 201.013 2119.59 152.091 2074.8 140.493C2061.61 137.075 2048.71 137.053 2036.48 140.331L2036.48 140.329Z" fill="#CBB9FF"/>
<path d="M1708.49 883.084C1702.4 884.715 1696.42 886.235 1690.54 887.641C1629.82 902.166 1583.11 904.22 1551.7 893.745C1520.97 883.495 1505.83 861.34 1506.72 827.895C1506.39 725.552 1517.81 645.914 1526.15 587.769C1529.74 562.711 1532.84 541.073 1533.96 524.255C1535.82 496.825 1558.38 458.67 1594.3 422.201C1631.76 384.17 1677.64 353.932 1720.18 339.251C1762.72 325.447 1813.08 301.323 1865.81 269.481C1908.13 243.925 1950.28 214.412 1981.44 188.513C2000.65 172.57 2023.25 167.532 2046.78 173.954C2087.84 185.152 2126.87 229.777 2148.63 290.419C2171.71 354.005 2191.16 411.274 2195.53 468.173C2197.93 499.482 2195.59 528.065 2188.37 555.549C2180.34 586.133 2166.52 614.61 2146.12 642.597C2128.46 667.392 2092.12 698.124 2041.03 731.467C1992.14 763.364 1931.9 795.988 1871.39 823.329C1813.69 849.396 1757.79 869.891 1708.48 883.104L1708.49 883.084ZM2010.1 174.965C2000.32 177.586 1991.01 182.496 1982.39 189.652C1951.17 215.597 1908.96 245.159 1866.58 270.751C1813.75 302.65 1763.29 326.828 1720.65 340.657C1678.34 355.264 1632.66 385.365 1595.36 423.24C1559.68 459.462 1537.28 497.268 1535.45 524.352C1534.33 541.227 1531.22 562.892 1527.62 587.976C1519.29 646.076 1507.88 725.649 1508.21 827.909C1507.34 860.646 1522.13 882.316 1552.17 892.331C1583.32 902.719 1629.76 900.651 1690.21 886.194C1743.61 873.409 1806.05 851.204 1870.79 821.953C1931.23 794.642 1991.4 762.062 2040.22 730.202C2091.17 696.962 2127.37 666.362 2144.92 641.707C2165.22 613.867 2178.96 585.557 2186.94 555.155C2194.11 527.833 2196.44 499.411 2194.05 468.273C2189.7 411.565 2170.28 354.399 2147.24 290.91C2125.64 230.716 2087 186.446 2046.4 175.376C2033.91 171.969 2021.68 171.856 2010.11 174.956L2010.1 174.965Z" fill="#CBB9FF"/>
<path d="M1710.81 851.037C1707.78 851.849 1704.78 852.626 1701.81 853.372C1647.94 866.916 1606.5 869.293 1578.66 860.434C1552.07 851.97 1538.73 833.318 1539.05 804.985C1535.75 715.638 1544.55 638.829 1550.98 582.748C1553.52 560.512 1555.73 541.306 1556.67 525.732C1558.38 498.366 1577.93 463.129 1610.28 429.053C1643.31 394.261 1684.99 366.061 1724.62 351.687C1803.74 325.285 1901.89 265.023 1959.61 220.208C1977 206.736 1997.32 202.848 2018.38 208.962C2055.18 219.649 2090.04 259.591 2109.35 313.207C2129.18 367.383 2147.29 420.324 2151.17 472.382C2153.26 500.448 2151.15 526.121 2144.71 550.85C2137.55 578.324 2125.28 603.918 2107.21 629.104C2091.41 651.871 2058.98 680.011 2013.43 710.467C1970.07 739.458 1916.47 769.223 1862.5 794.279C1808.59 819.299 1756.38 838.825 1710.81 851.043L1710.81 851.037ZM1983.64 209.565C1975.51 211.744 1967.72 215.662 1960.46 221.286C1902.65 266.169 1804.33 326.532 1725.08 352.976C1685.66 367.274 1644.18 395.348 1611.29 429.994C1579.15 463.843 1559.75 498.766 1558.06 525.813C1557.11 541.419 1554.9 560.645 1552.35 582.9C1545.93 638.937 1537.14 715.686 1540.43 804.966C1540.13 832.656 1553.13 850.862 1579.09 859.121C1606.68 867.902 1647.86 865.517 1701.48 852.035C1749.03 840.067 1804.52 819.676 1861.92 793.021C1915.83 767.995 1969.37 738.272 2012.67 709.315C2058.08 678.952 2090.38 650.941 2106.09 628.305C2124.07 603.256 2136.27 577.808 2143.38 550.501C2149.79 525.921 2151.89 500.397 2149.81 472.484C2145.94 420.597 2127.86 367.756 2108.07 313.676C2088.91 260.466 2054.4 220.849 2018.01 210.284C2006.19 206.85 1994.6 206.641 1983.65 209.575L1983.64 209.565Z" fill="#CBB9FF"/>
<path d="M1713.39 819.075L1713.06 819.164C1666.03 831.733 1629.88 834.433 1605.62 827.196C1583.15 820.5 1571.64 805.316 1571.39 782.072C1564.72 704.191 1571.2 628.099 1575.93 572.54C1577.41 555.141 1578.69 540.117 1579.41 527.196C1580.95 500.285 1598.04 467.004 1626.28 435.894C1654.93 404.336 1692.4 378.164 1729.09 364.104C1763.18 352.334 1802.21 334.154 1845.14 310.074C1877.43 291.957 1911.2 270.75 1937.81 251.885C1953.39 240.875 1971.45 238.138 1990.05 243.973C2022.59 254.173 2053.25 289.433 2070.09 335.993C2086.82 381.243 2103.44 429.375 2106.83 476.594C2108.6 501.424 2106.72 524.174 2101.05 546.16C2094.77 570.519 2084.05 593.243 2068.3 615.616C2040.66 656.739 1954.37 716.891 1853.59 765.285C1803.56 789.308 1755.1 807.9 1713.39 819.075ZM1957.06 244.108C1950.6 245.84 1944.38 248.786 1938.53 252.921C1911.89 271.808 1878.07 293.046 1845.75 311.178C1802.76 335.293 1763.65 353.499 1729.51 365.29C1693.03 379.277 1655.73 405.319 1627.21 436.743C1599.16 467.645 1582.19 500.642 1580.66 527.268C1579.95 540.201 1578.67 555.237 1577.18 572.644C1572.45 628.158 1565.98 704.186 1572.64 782.005C1572.89 804.678 1584.1 819.454 1605.98 825.976C1630.02 833.143 1665.93 830.442 1712.73 817.935L1713.06 817.845C1754.69 806.691 1803.08 788.127 1853.03 764.134C1953.63 715.827 2039.71 655.85 2067.25 614.887C2082.92 592.629 2093.57 570.043 2099.82 545.831C2105.45 523.987 2107.33 501.365 2105.56 476.676C2102.19 429.622 2085.6 381.59 2068.9 336.419C2052.19 290.22 2021.83 255.254 1989.67 245.174C1978.46 241.657 1967.44 241.321 1957.07 244.099L1957.06 244.108Z" fill="#CBB9FF"/>
<path d="M1716.16 787.32C1679.92 797.031 1651.81 799.31 1632.53 794.087C1614.2 789.12 1604.51 777.388 1603.71 759.205C1592.68 691.326 1597.32 611.993 1600.7 554.059C1601.23 544.967 1601.73 536.385 1602.12 528.673C1603.52 501.788 1617.77 471.274 1642.26 442.746C1666.95 413.986 1699.36 390.47 1733.53 376.533C1757.42 367.922 1822.98 341.649 1915.98 283.578C1929.77 275.012 1945.61 273.429 1961.79 279.018C1990 288.762 2016.45 319.328 2030.8 358.783C2044.61 395.616 2059.58 438.458 2062.46 480.811C2065.51 525.573 2054.69 565.254 2029.37 602.132C2017.27 620.877 1992.65 643.855 1958.2 668.576C1925.39 692.118 1886.12 715.562 1844.65 736.372C1801.82 757.859 1760.19 774.7 1724.27 785.066C1721.52 785.858 1718.82 786.609 1716.16 787.322L1716.16 787.32ZM1930.32 278.564C1925.57 279.836 1920.97 281.839 1916.59 284.556C1901.72 293.847 1871.37 312.289 1835.34 331.391C1797.5 351.452 1763.39 367 1733.95 377.607C1699.97 391.468 1667.72 414.867 1643.14 443.494C1618.82 471.827 1604.67 502.095 1603.28 528.725C1602.89 536.437 1602.39 545.025 1601.87 554.123C1598.48 612.013 1593.85 691.289 1604.87 759.052L1604.88 759.119C1605.64 776.76 1615.04 788.148 1632.84 792.969C1653.04 798.44 1684.55 795.326 1723.96 783.95C1759.82 773.601 1801.37 756.793 1844.14 735.335C1885.56 714.553 1924.78 691.14 1957.54 667.636C1991.88 643.002 2016.39 620.129 2028.42 601.495C2053.59 564.831 2064.35 525.383 2061.32 480.897C2058.45 438.698 2043.51 395.948 2029.73 359.195C2015.49 320.049 1989.32 289.754 1961.43 280.12C1950.74 276.425 1940.19 275.929 1930.33 278.572L1930.32 278.564Z" fill="#CBB9FF"/>
<path d="M1720.13 755.635C1694.39 762.53 1673.6 764.455 1659.43 761.186C1645.19 757.901 1637.33 749.539 1636.05 736.325C1618.26 677.487 1622.87 574.24 1624.84 530.143C1627.4 475.048 1673.92 416.99 1737.98 388.961C1789.61 369.327 1848.5 338.872 1883.69 320.681C1887.43 318.752 1890.94 316.939 1894.18 315.267C1906.21 309.111 1919.88 308.718 1933.69 314.12C1957.53 323.449 1979.68 349.295 1991.53 381.578C2004.01 414.254 2015.86 449.401 2018.11 485.032C2020.51 523.052 2011.47 556.945 1990.46 588.653C1970.28 621.58 1909.55 668.257 1835.72 707.558C1800.23 726.453 1765.57 741.514 1735.5 751.116C1730.2 752.804 1725.07 754.317 1720.12 755.642L1720.13 755.635ZM1903.29 312.87C1900.33 313.663 1897.45 314.773 1894.65 316.2C1891.41 317.866 1887.91 319.677 1884.17 321.613C1848.97 339.814 1790.04 370.291 1738.37 389.934C1674.69 417.8 1628.43 475.48 1625.89 530.194C1623.92 574.249 1619.31 677.42 1637.07 736.076L1637.1 736.176C1638.31 748.925 1645.9 756.996 1659.66 760.168C1676.38 764.024 1702.5 760.547 1735.18 750.119C1765.2 740.539 1799.8 725.505 1835.24 706.64C1908.9 667.419 1969.48 620.891 1989.58 588.097C2036.23 517.69 2015.64 447.659 1990.55 381.958C1978.81 349.938 1956.88 324.326 1933.31 315.106C1923 311.071 1912.79 310.337 1903.3 312.88L1903.29 312.87Z" fill="#CBB9FF"/>
<path d="M1724.74 724.499C1709.01 728.714 1695.89 730.219 1686.39 728.675C1676.15 727.007 1670.1 721.893 1668.41 713.477C1659.01 698.683 1652.58 670.89 1649.27 630.868C1646.86 601.707 1646.23 565.533 1647.57 531.616C1649.79 477.189 1685.25 428.509 1742.43 401.394C1762.79 393.082 1783.87 384.001 1804.26 375.218C1830.62 363.86 1855.53 353.139 1872.38 346.955C1886.58 341.807 1902.82 345.288 1918.11 356.751C1932.6 367.616 1945.04 384.97 1952.25 404.365C1969.57 448.536 1972.84 472.928 1973.76 489.246C1975.52 520.509 1968.25 548.617 1951.55 575.165C1935.01 604.156 1887.26 643.903 1826.91 678.875C1788.37 701.216 1752.49 717.07 1724.74 724.505L1724.74 724.499ZM1875.78 346.864C1874.75 347.142 1873.72 347.467 1872.7 347.835C1855.87 354.006 1830.99 364.723 1804.63 376.078C1784.24 384.862 1763.15 393.939 1742.81 402.246C1685.97 429.2 1650.71 477.576 1648.5 531.647C1647.17 565.532 1647.79 601.663 1650.2 630.787C1653.5 670.724 1659.91 698.405 1669.24 713.045L1669.29 713.121L1669.31 713.203C1670.89 721.247 1676.68 726.142 1686.53 727.751C1712.61 732.004 1766.22 712.963 1826.44 678.061C1886.65 643.169 1934.27 603.556 1950.74 574.685C1967.35 548.294 1974.56 520.369 1972.82 489.303C1971.08 458.374 1960.45 427.846 1951.37 404.708C1944.22 385.465 1931.9 368.264 1917.54 357.504C1903.61 347.064 1888.91 343.353 1875.78 346.87L1875.78 346.864Z" fill="#CBB9FF"/>
<path d="M1730.68 694.412C1724.17 696.155 1718.52 697.035 1713.94 696.965C1707.23 696.854 1702.82 694.748 1700.82 690.695C1686.61 684.781 1679.13 653.783 1675.36 628.778C1671.11 600.575 1669.21 564.805 1670.28 533.08C1671.24 505.778 1677.76 482.956 1690.21 463.3C1702.93 443.228 1721.46 427.046 1746.88 413.816C1786.01 396.189 1826.71 382.388 1850.6 378.649C1862.24 376.879 1875.21 381.249 1887.11 390.946C1898.24 400.02 1907.67 413.216 1912.97 427.155C1927.9 463.713 1941.35 512.034 1912.63 561.674C1899.85 586.54 1864.76 619.609 1818.79 650.103C1785.19 672.392 1752.94 688.446 1730.67 694.414L1730.68 694.412ZM1830.35 383.954C1807.01 390.21 1776.68 401.299 1747.25 414.558C1721.99 427.703 1703.56 443.794 1690.92 463.738C1678.54 483.266 1672.07 505.952 1671.12 533.101C1669.1 592.394 1677.13 680.265 1701.28 689.981L1701.43 690.042L1701.5 690.186C1703.31 694.025 1707.5 696.021 1713.95 696.126C1734.09 696.454 1775.06 678.113 1818.34 649.402C1864.2 618.982 1899.18 586.033 1911.91 561.264C1940.46 511.921 1927.06 463.83 1912.21 427.447L1912.2 427.436C1906.95 413.629 1897.61 400.553 1886.59 391.57C1874.87 382.018 1862.13 377.717 1850.73 379.45C1844.86 380.369 1837.98 381.899 1830.35 383.942L1830.35 383.954Z" fill="#CBB9FF"/>
<path d="M1740.19 667.192C1737.38 667.944 1735.1 668.172 1733.44 667.82C1728.94 669.754 1724.63 669.358 1720.64 666.662C1708.94 658.774 1702.23 633.094 1698.66 612.932C1694.4 588.947 1692.3 559.642 1693.02 534.539C1693.84 506.142 1697.91 486.285 1706.22 470.146C1715.07 452.937 1729.41 438.982 1751.35 426.231C1776.75 412.997 1807.18 406.766 1828.86 410.351C1848.32 413.654 1866.95 433.066 1873.71 449.927C1888.84 484.458 1888.85 517.514 1873.73 548.164C1868.37 560.486 1858.6 574.45 1844.73 589.659C1832.72 602.825 1817.93 616.529 1801.94 629.286C1776.92 649.258 1753.07 663.728 1740.19 667.178L1740.19 667.192ZM1733.37 667.074L1733.48 667.1C1735.07 667.47 1737.29 667.253 1740.03 666.519C1768.37 658.925 1852.29 595.58 1873.07 547.877C1888.1 517.408 1888.09 484.561 1873.03 450.227L1873.03 450.215C1866.34 433.535 1847.94 414.333 1828.73 411.071C1807.19 407.51 1776.94 413.713 1751.68 426.871C1729.88 439.542 1715.62 453.397 1706.83 470.482C1698.59 486.519 1694.54 506.282 1693.72 534.565C1693 559.624 1695.11 588.872 1699.35 612.816C1702.9 632.84 1709.54 658.332 1721.02 666.076C1724.83 668.646 1728.95 668.999 1733.25 667.118L1733.35 667.071L1733.37 667.074Z" fill="#CBB9FF"/>
<path d="M1754.33 652.594C1751.52 653.346 1748.79 653.189 1746.13 652.104C1739.48 649.398 1730.03 639.398 1722.71 607.159C1717.8 585.546 1715.19 558.955 1715.73 536.023C1716.35 508.922 1717.11 491.423 1722.19 477.03C1727.46 462.138 1737.19 451.027 1755.79 438.686C1766.04 431.885 1776.97 429.929 1788.26 432.873C1812.68 439.247 1831.15 466.358 1834.41 472.726C1840.51 484.625 1842.18 499.221 1839.38 516.113C1836.97 530.655 1831.27 546.928 1822.41 564.496C1806.41 596.243 1782.72 626.766 1765.9 644.743C1761.94 648.973 1758.07 651.598 1754.33 652.6L1754.33 652.594ZM1768.67 433.402C1764.39 434.548 1760.21 436.472 1756.13 439.186C1737.65 451.45 1727.98 462.469 1722.76 477.229C1717.71 491.544 1716.96 508.993 1716.33 536.036C1715.36 577.846 1725.49 643.042 1746.36 651.547C1752.29 653.964 1758.71 651.534 1765.45 644.33C1782.25 626.385 1805.89 595.918 1821.86 564.223C1830.69 546.713 1836.38 530.495 1838.77 516.013C1841.55 499.252 1839.9 484.782 1833.86 473.005C1830.63 466.686 1812.3 439.776 1788.1 433.462C1781.47 431.735 1774.97 431.719 1768.66 433.411L1768.67 433.402Z" fill="#CBB9FF"/>
</g>
<g clip-path="url(#clip1_8_346)">
<path fillRule="evenodd" clipRule="evenodd" d="M-21.682 742.044C-16.9317 726.342 -6.21658 712.666 7.97489 704.44C15.1609 700.252 23.2867 697.377 31.6453 696.97C39.9794 696.512 49.7126 698.594 55.2194 705.401C60.0439 711.37 60.1691 719.552 59.3095 726.789C58.2358 735.953 55.9959 745.045 53.645 753.97C48.9345 771.603 41.2106 788.852 40.1029 807.249C39.2749 820.889 42.8991 836.019 53.3169 845.545C65.7314 856.884 84.7738 856.596 100.188 852.85C115.438 849.089 129.978 839.877 136.212 824.913C139.096 817.967 139.933 809.955 137.543 802.76C135.308 796.089 130.122 790.418 123.32 788.351C116.948 786.394 109.832 788.22 105.334 793.232C102.106 796.819 99.0363 805.489 105.323 807.928C107.756 808.874 110.739 808.14 112.724 806.5C115.2 804.437 115.987 801.009 115.753 797.943C115.147 789.676 106.605 782.306 109.216 773.729C110.475 769.573 114.898 767.176 119.069 768.141C119.814 768.32 120.216 767.185 119.471 767.006C113.48 765.652 107.982 769.883 107.599 776.011C107.104 784.144 114.021 790.215 114.545 798.112C114.822 802.258 112.873 806.681 108.283 807.143C103.209 807.648 102.154 802.332 103.559 798.483C106.263 791.09 114.974 787.399 122.324 789.362C130.141 791.448 135.632 798.419 137.187 806.17C138.812 814.202 136.724 822.624 132.533 829.533C123.965 843.756 108.003 850.972 92.0971 853.223C83.5837 854.427 74.636 854.455 66.3852 851.79C58.8303 849.328 52.5128 844.45 48.2854 837.756C39.7935 824.353 40.0933 807.757 43.5094 792.818C45.4859 784.23 48.3591 775.873 50.9921 767.474C53.7188 758.811 56.0918 750.064 57.9731 741.143C60.5911 728.819 64.809 711.736 53.7054 702.223C42.2151 692.361 24.2667 695.21 11.7163 701.205C-1.37322 707.521 -12.1736 718.312 -18.6877 731.302C-20.3881 734.662 -21.7482 738.143 -22.8191 741.769C-23.0335 742.375 -21.8989 742.777 -21.682 742.044Z" fill="black"/>
<path fillRule="evenodd" clipRule="evenodd" d="M63.8064 816.877C68.1866 816.766 71.7898 819.575 73.7611 823.384C75.8298 827.397 75.7197 831.917 73.8155 835.972C69.374 845.392 58.7834 849.099 49.4472 851.545C33.8745 855.619 13.1689 861.326 7.31271 878.469C4.89519 885.538 5.69265 893.745 11.1232 899.204C16.965 905.065 25.7062 906.583 33.6094 905.418C37.8728 904.797 42.0098 903.45 46.0497 901.898C50.5371 900.163 55.116 898.29 59.1635 895.632C62.6074 893.358 65.6451 890.428 67.4798 886.689C69.102 883.429 70.0384 878.86 68.1222 875.498C64.1534 868.554 50.2472 876.455 55.2049 882.77C56.6046 884.586 58.8387 885.249 60.8787 886.099C63.1698 887.081 65.2382 888.453 66.9295 890.287C70.2637 893.853 72.1028 898.638 71.8587 903.536C71.8438 904.297 73.0347 904.421 73.0621 903.621C73.3782 896.958 70.0883 890.382 64.5107 886.661C61.7147 884.819 52.6656 882.851 55.9299 877.956C58.7243 873.79 66.5179 871.734 67.8075 878.071C68.7365 882.66 66.2722 887.455 63.2407 890.728C60.0289 894.15 55.824 896.41 51.5744 898.315C43.7418 901.805 35.1231 905.23 26.3788 904.563C18.0016 903.94 9.58957 899.088 7.64669 890.389C5.8918 882.483 9.35695 874.378 14.9065 868.801C20.9086 862.788 28.9865 859.086 36.9318 856.36C45.2733 853.477 54.2804 852.319 62.2478 848.451C69.3951 844.973 76.7201 838.108 76.5401 829.48C76.4017 822.657 71.1665 815.563 63.8793 815.709C63.118 815.696 62.9939 816.888 63.8064 816.877Z" fill="black"/>
<path fillRule="evenodd" clipRule="evenodd" d="M137.259 723.282C130.982 714.64 119.478 708.773 109.119 713.791C100.038 718.129 94.9891 732.392 99.2878 741.561C103.798 751.465 116.858 755.334 126.677 752.107C131.941 750.289 135.256 745.986 137.457 741.101C138.546 738.56 139.639 735.737 139.974 732.929C140.278 730.204 138.547 726.57 137.864 723.968C137.653 723.233 136.607 723.523 136.764 724.145C138.08 728.954 139.273 732.775 137.635 737.671C135.877 742.902 133.435 747.135 128.627 750.059C119.555 755.439 103.359 750.838 100.074 740.139C97.1022 730.685 101.107 719.641 109.606 714.814C119.073 709.385 130.782 716.268 136.399 724.11C136.867 724.654 137.697 723.909 137.259 723.282Z" fill="black"/>
<path fillRule="evenodd" clipRule="evenodd" d="M136.878 724.091C139.465 725.574 144.195 725.266 144.797 721.702C144.951 721.001 143.772 720.867 143.702 721.598C143.314 724.293 139.294 724.191 137.486 723.173C136.845 722.852 136.237 723.77 136.878 724.091Z" fill="black"/>
<path fillRule="evenodd" clipRule="evenodd" d="M120.303 730.685C121.1 731.628 121.42 732.591 121.369 733.8C121.302 735.854 119.413 736.129 117.791 735.649C116.45 735.174 115.687 733.866 115.797 732.489C115.918 730.549 118.291 729.973 119.651 730.926C120.262 731.332 120.87 730.414 120.259 730.009C118.426 728.793 116.28 729.261 115.064 731.096C113.962 732.878 114.931 735.203 116.429 736.3C117.789 737.253 120.846 737.675 121.78 735.834C122.745 733.91 122.422 731.624 121.019 729.994C120.664 729.397 119.835 730.142 120.303 730.685Z" fill="black"/>
<path fillRule="evenodd" clipRule="evenodd" d="M116.015 716.422C117.171 719.285 116.269 722.365 117.114 725.307C117.222 725.535 117.384 725.875 117.636 725.964C118.055 726.113 118.646 726.039 119.125 726.02C120.841 725.966 122.31 727.147 123.27 728.431C123.462 728.688 123.827 728.723 124.083 728.53C126.315 726.488 128.853 724.649 130.863 722.434C131.614 721.378 130.732 720.405 130.067 719.886C126.076 716.774 120.945 714.485 115.864 715.518C115.158 715.646 115.334 716.747 116.04 716.619C120.302 715.768 124.038 717.468 127.68 719.702C128.291 720.107 128.902 720.512 129.43 720.888C130.484 721.639 127.231 724.169 126.801 724.583C125.601 725.574 124.38 727.691 122.971 726.343C122.282 725.627 121.247 725.355 120.325 725.028C118.786 724.578 118.292 725.442 117.935 723.521C117.45 720.895 118.114 718.486 117.037 715.934C116.796 715.282 115.775 715.77 116.015 716.422Z" fill="black"/>
<path fillRule="evenodd" clipRule="evenodd" d="M113.224 727.235C111.698 729.149 110.931 731.049 110.829 733.468C110.818 734.031 106.477 734.571 105.969 734.674C104.164 734.979 102.323 735.649 102.371 733.117C102.38 729.627 103.258 726.35 105.141 723.429C107.774 719.452 112.077 725.413 113.208 728.079C113.533 728.761 114.471 728.243 114.23 727.591C113.123 725.122 111.385 723.374 109.251 721.675C107.645 720.351 107.177 719.807 105.548 721.213C102.086 724.331 99.8674 731.664 101.386 736.167C101.41 736.364 101.661 736.453 101.829 736.513C103.205 736.622 104.705 736.115 106.032 735.829C107.556 735.519 109.47 735.441 110.886 734.904C111.311 734.771 111.621 734.693 111.686 734.243C112.153 731.86 112.358 729.949 113.998 727.981C114.6 727.345 113.713 726.653 113.224 727.235Z" fill="black"/>
<path fillRule="evenodd" clipRule="evenodd" d="M113.013 738.489C114.392 739.921 115.841 740.623 117.749 740.827C119.125 740.936 119.544 741.085 119.71 742.748C119.856 743.933 121.088 748.712 119.09 748.76C115.771 748.812 112.27 748.045 109.461 746.39C107.096 745.08 108.114 743.269 109.462 741.858C110.381 740.862 111.745 738.607 113.21 738.465C113.915 738.337 113.739 737.236 113.034 737.364C111.426 737.644 110.526 739.119 109.464 740.254C108.575 741.167 106.665 742.567 106.219 743.826C105.471 746.204 109.884 747.861 111.446 748.508C113.26 749.245 115.252 749.478 117.161 749.682C118.058 749.811 119.824 750.153 120.623 749.492C121.423 748.831 121.469 747.903 121.317 746.999C121.078 744.743 121.215 741.959 120.468 739.807C120.444 739.609 120.192 739.52 120.025 739.461C117.524 739.331 115.857 739.779 113.872 737.66C113.345 737.285 112.515 738.03 113.013 738.489Z" fill="black"/>
<path fillRule="evenodd" clipRule="evenodd" d="M125.114 732.011C125.299 734.153 124.459 735.461 123.608 737.331C123.287 737.972 123.257 738.056 123.695 738.684C124.404 739.879 125.848 740.862 126.843 741.78C128.114 742.986 129.355 744.275 130.71 745.51C130.902 745.766 131.35 745.831 131.583 745.441C134.341 740.847 135.531 735.887 135.267 730.507C135.272 730.226 134.883 729.993 134.572 730.072C131.607 730.722 128.244 730.098 125.411 731.172C124.76 731.413 125.247 732.435 125.898 732.194C127.625 731.578 129.223 731.86 130.969 731.723C131.645 731.679 132.237 731.606 132.829 731.532C134.407 731.336 134.164 732.288 134.084 733.581C134.01 737.52 132.643 741.379 130.582 744.804C130.863 744.809 131.145 744.814 131.455 744.735C129.441 742.7 127.397 740.749 125.382 738.714C124.471 737.825 125.716 735.906 126.043 734.983C126.429 733.892 126.337 732.821 126.244 731.75C126.171 731.158 125.071 731.335 125.114 732.011Z" fill="black"/>
<path fillRule="evenodd" clipRule="evenodd" d="M69.8468 917.691C76.6828 917.562 83.4679 918.643 90.2338 919.244C93.9966 919.538 97.7594 919.831 101.582 919.957C103.717 920.052 105.617 919.215 105.697 922.453C105.759 923.608 105.822 924.763 105.801 925.888C104.33 926.312 102.865 926.454 101.292 926.369C98.3674 926.372 95.483 925.729 92.6527 925.199C89.1763 924.629 85.8273 924.765 82.3265 923.998C79.2448 923.379 76.1472 923.604 72.9955 923.715C69.76 923.797 70.9045 919.765 70.3899 917.223C70.2626 916.517 69.1625 916.694 69.2899 917.4C69.78 919.745 69.8512 921.941 69.4141 924.241C69.4089 924.522 69.6847 924.809 69.9658 924.814C77.5613 924.671 85.0328 925.144 92.5774 926.211C94.7373 926.503 106.24 929.442 106.841 925.879C106.971 924.981 107.317 920.005 106.233 919.338C103.868 918.029 99.5511 918.766 96.7696 918.631C87.8088 918.102 78.8691 916.448 69.868 916.566C69.1922 916.61 69.0872 917.706 69.8468 917.691Z" fill="black"/>
<path fillRule="evenodd" clipRule="evenodd" d="M70.4685 917.534C71.0339 918.867 72.1722 919.647 73.1079 920.734C73.6298 921.391 73.9545 922.072 74.5061 922.645C75.1118 923.332 75.777 923.85 76.4963 924.483C77.0776 924.972 77.6854 924.054 77.1041 923.565C75.9414 922.587 75.0598 921.614 74.2674 920.389C73.4749 919.164 72.1393 918.408 71.49 917.046C71.2492 916.394 70.2276 916.882 70.4685 917.534Z" fill="black"/>
<path fillRule="evenodd" clipRule="evenodd" d="M76.8149 917.987C78.3214 920.125 79.8575 922.18 81.5071 924.18C81.975 924.723 82.8045 923.978 82.3367 923.435C80.6871 921.435 79.1806 919.296 77.6445 917.242C77.2064 916.615 76.3768 917.36 76.8149 917.987Z" fill="black"/>
<path fillRule="evenodd" clipRule="evenodd" d="M83.1032 918.608C85.0393 920.332 86.4566 922.722 87.9927 924.776C88.4309 925.403 89.2604 924.659 88.8223 924.031C87.2321 921.863 85.7606 919.36 83.7408 917.606C83.1297 917.201 82.5219 918.119 83.1032 918.608Z" fill="black"/>
<path fillRule="evenodd" clipRule="evenodd" d="M89.5284 919.372C91.3701 921.629 93.2955 923.916 95.0237 926.227C95.4915 926.77 96.2913 926.109 95.8532 925.482C94.0413 923.141 92.1996 920.884 90.3579 918.627C89.8901 918.084 89.0606 918.829 89.5284 919.372Z" fill="black"/>
<path fillRule="evenodd" clipRule="evenodd" d="M96.1568 919.83C98.0525 922.201 99.8942 924.458 101.79 926.828C102.258 927.372 103.087 926.627 102.619 926.084C100.724 923.713 98.8821 921.456 96.9863 919.086C96.6023 918.572 95.7727 919.317 96.1568 919.83Z" fill="black"/>
<path fillRule="evenodd" clipRule="evenodd" d="M101.616 919.592C103.049 921.138 104.453 922.768 105.97 924.343C106.438 924.887 107.267 924.142 106.8 923.599C105.366 922.053 103.963 920.423 102.446 918.847C101.978 918.304 101.148 919.049 101.616 919.592Z" fill="black"/>
<path fillRule="evenodd" clipRule="evenodd" d="M69.404 924.804C69.1792 930.766 66.2377 936.145 64.9479 941.919C64.2679 945.172 66.396 947.153 69.0131 948.551C73.6904 951.057 79.3754 952.314 84.5523 953.675C87.3232 954.373 90.0697 954.873 92.7865 955.457C94.1868 955.764 97.2876 956.862 98.6497 956.211C101.26 954.964 102.088 948.365 102.865 945.902C103.286 944.446 106.902 936.097 105.572 935.059C104.158 933.992 102.028 933.616 100.436 933.052C97.3347 931.954 94.3177 930.886 91.1871 929.872C84.5071 927.696 77.5946 925.91 70.7958 924.069C70.0956 923.916 69.7392 924.923 70.4096 925.16C78.8603 927.396 87.1974 929.687 95.4401 932.511C97.4514 933.223 99.5466 933.965 101.558 934.677C104.91 935.864 104 937.902 103.217 940.645C102.013 944.845 100.78 949.129 99.2108 953.294C98.0875 956.201 96.6733 955.134 94.4594 954.728C91.7967 954.257 89.134 953.786 86.4469 953.118C82.1622 952.168 77.9125 950.852 73.7222 949.369C70.1185 948.093 64.9957 946.846 66.172 941.125C66.574 939.191 67.4545 937.237 68.0241 935.361C69.3012 931.754 70.3461 928.536 70.4987 924.908C70.5687 924.178 69.3902 924.044 69.404 924.804Z" fill="black"/>
<path fillRule="evenodd" clipRule="evenodd" d="M68.6255 931.798C79.8503 936.055 91.1344 940.144 102.424 943.952C103.094 944.19 103.48 943.099 102.81 942.862C91.4664 938.94 80.1526 934.935 69.0116 930.707C68.3412 930.47 67.9551 931.56 68.6255 931.798Z" fill="black"/>
<path fillRule="evenodd" clipRule="evenodd" d="M83.9331 940.238C82.8935 943.175 81.9675 946.057 80.928 948.993C80.6903 949.664 81.7798 950.05 82.0174 949.379C83.057 946.442 83.983 943.56 85.0225 940.624C85.1763 939.923 84.1707 939.567 83.9331 940.238Z" fill="black"/>
<path fillRule="evenodd" clipRule="evenodd" d="M70.2713 925.017C71.3481 927.569 72.3411 930.092 73.1909 932.753C73.4317 933.405 74.5318 933.228 74.291 932.576C73.4709 929.831 72.4238 927.195 71.2632 924.612C71.0521 923.877 70.0305 924.365 70.2713 925.017Z" fill="black"/>
<path fillRule="evenodd" clipRule="evenodd" d="M76.1483 926.531C77.2442 929.562 78.424 932.623 79.5199 935.655C79.7607 936.307 80.7823 935.819 80.5414 935.167C79.4455 932.135 78.2658 929.074 77.1699 926.043C76.9291 925.391 75.9075 925.879 76.1483 926.531Z" fill="black"/>
<path fillRule="evenodd" clipRule="evenodd" d="M82.217 928.302C83.123 929.472 83.4912 930.83 83.9728 932.133C84.5871 933.861 85.1716 935.673 85.6724 937.456C85.9132 938.107 87.0133 937.93 86.7725 937.279C85.8198 934.109 85.1047 930.268 83.0169 927.641C82.6626 927.043 81.833 927.788 82.217 928.302Z" fill="black"/>
<path fillRule="evenodd" clipRule="evenodd" d="M88.7349 930.137C89.3841 931.5 89.6632 933.109 90.0313 934.467C90.5077 936.052 90.9543 937.72 91.3469 939.276C91.558 940.011 92.604 939.721 92.447 939.099C91.9706 937.514 91.524 935.845 91.1314 934.29C90.7389 932.735 90.376 931.096 89.7565 929.649C89.4021 929.052 88.3806 929.54 88.7349 930.137Z" fill="black"/>
<path fillRule="evenodd" clipRule="evenodd" d="M94.474 931.508C95.2538 934.9 96.3147 938.296 97.4053 941.609C97.6462 942.261 98.7462 942.084 98.5054 941.432C97.4148 938.119 96.3539 934.723 95.5741 931.331C95.3927 930.512 94.2629 930.772 94.474 931.508Z" fill="black"/>
<path fillRule="evenodd" clipRule="evenodd" d="M100.276 934.034C101.18 936.809 102.03 939.47 102.934 942.245C103.174 942.896 104.274 942.719 104.034 942.068C103.13 939.293 102.28 936.632 101.376 933.857C101.165 933.122 100.065 933.299 100.276 934.034Z" fill="black"/>
</g>
</g>
<defs>
<filter id="filter0_f_8_346" x="-878" y="-1067" width="2283" height="2174" filterUnits="userSpaceOnUse" color-interpolation-filters="sRGB">
<feFlood flood-opacity="0" result="BackgroundImageFix"/>
<feBlend mode="normal" in="SourceGraphic" in2="BackgroundImageFix" result="shape"/>
<feGaussianBlur stdDeviation="450" result="effect1_foregroundBlur_8_346"/>
</filter>
<filter id="filter1_d_8_346" x="1541" y="195" width="79" height="79" filterUnits="userSpaceOnUse" color-interpolation-filters="sRGB">
<feFlood flood-opacity="0" result="BackgroundImageFix"/>
<feColorMatrix in="SourceAlpha" type="matrix" values="0 0 0 0 0 0 0 0 0 0 0 0 0 0 0 0 0 0 127 0" result="hardAlpha"/>
<feOffset dy="4"/>
<feGaussianBlur stdDeviation="10"/>
<feComposite in2="hardAlpha" operator="out"/>
<feColorMatrix type="matrix" values="0 0 0 0 0.424479 0 0 0 0 0.654688 0 0 0 0 1 0 0 0 0.3 0"/>
<feBlend mode="normal" in2="BackgroundImageFix" result="effect1_dropShadow_8_346"/>
<feBlend mode="normal" in="SourceGraphic" in2="effect1_dropShadow_8_346" result="shape"/>
</filter>
<filter id="filter2_d_8_346" x="1635" y="638" width="66" height="66" filterUnits="userSpaceOnUse" color-interpolation-filters="sRGB">
<feFlood flood-opacity="0" result="BackgroundImageFix"/>
<feColorMatrix in="SourceAlpha" type="matrix" values="0 0 0 0 0 0 0 0 0 0 0 0 0 0 0 0 0 0 127 0" result="hardAlpha"/>
<feOffset dy="4"/>
<feGaussianBlur stdDeviation="10"/>
<feComposite in2="hardAlpha" operator="out"/>
<feColorMatrix type="matrix" values="0 0 0 0 0.424479 0 0 0 0 0.654688 0 0 0 0 1 0 0 0 0.3 0"/>
<feBlend mode="normal" in2="BackgroundImageFix" result="effect1_dropShadow_8_346"/>
<feBlend mode="normal" in="SourceGraphic" in2="effect1_dropShadow_8_346" result="shape"/>
</filter>
<filter id="filter3_d_8_346" x="95" y="129" width="60" height="60" filterUnits="userSpaceOnUse" color-interpolation-filters="sRGB">
<feFlood flood-opacity="0" result="BackgroundImageFix"/>
<feColorMatrix in="SourceAlpha" type="matrix" values="0 0 0 0 0 0 0 0 0 0 0 0 0 0 0 0 0 0 127 0" result="hardAlpha"/>
<feOffset dy="4"/>
<feGaussianBlur stdDeviation="10"/>
<feComposite in2="hardAlpha" operator="out"/>
<feColorMatrix type="matrix" values="0 0 0 0 0.424479 0 0 0 0 0.654688 0 0 0 0 1 0 0 0 0.3 0"/>
<feBlend mode="normal" in2="BackgroundImageFix" result="effect1_dropShadow_8_346"/>
<feBlend mode="normal" in="SourceGraphic" in2="effect1_dropShadow_8_346" result="shape"/>
</filter>
<filter id="filter4_d_8_346" x="306" y="256" width="54" height="55" filterUnits="userSpaceOnUse" color-interpolation-filters="sRGB">
<feFlood flood-opacity="0" result="BackgroundImageFix"/>
<feColorMatrix in="SourceAlpha" type="matrix" values="0 0 0 0 0 0 0 0 0 0 0 0 0 0 0 0 0 0 127 0" result="hardAlpha"/>
<feOffset dy="4"/>
<feGaussianBlur stdDeviation="10"/>
<feComposite in2="hardAlpha" operator="out"/>
<feColorMatrix type="matrix" values="0 0 0 0 0.424479 0 0 0 0 0.654688 0 0 0 0 1 0 0 0 0.3 0"/>
<feBlend mode="normal" in2="BackgroundImageFix" result="effect1_dropShadow_8_346"/>
<feBlend mode="normal" in="SourceGraphic" in2="effect1_dropShadow_8_346" result="shape"/>
</filter>
<filter id="filter5_f_8_346" x="614.489" y="-779.133" width="1785" height="1617" filterUnits="userSpaceOnUse" color-interpolation-filters="sRGB">
<feFlood flood-opacity="0" result="BackgroundImageFix"/>
<feBlend mode="normal" in="SourceGraphic" in2="BackgroundImageFix" result="shape"/>
<feGaussianBlur stdDeviation="350" result="effect1_foregroundBlur_8_346"/>
</filter>
<linearGradient id="paint0_linear_8_346" x1="1561" y1="230.5" x2="1600" y2="230.5" gradientUnits="userSpaceOnUse">
<stop stop-color="#79D7F5"/>
<stop offset="1" stop-color="#73ACFA"/>
</linearGradient>
<linearGradient id="paint1_linear_8_346" x1="1655" y1="667" x2="1681" y2="667" gradientUnits="userSpaceOnUse">
<stop stop-color="#79D7F5"/>
<stop offset="1" stop-color="#73ACFA"/>
</linearGradient>
<linearGradient id="paint2_linear_8_346" x1="115" y1="155" x2="135" y2="155" gradientUnits="userSpaceOnUse">
<stop stop-color="#79D7F5"/>
<stop offset="1" stop-color="#73ACFA"/>
</linearGradient>
<linearGradient id="paint3_linear_8_346" x1="326" y1="279.5" x2="340" y2="279.5" gradientUnits="userSpaceOnUse">
<stop stop-color="#79D7F5"/>
<stop offset="1" stop-color="#73ACFA"/>
</linearGradient>
<clipPath id="clip0_8_346">
<rect width="1920" height="1027" fill="white"/>
</clipPath>
<clipPath id="clip1_8_346">
<rect width="187.586" height="241.182" fill="white" transform="translate(2.49023 670) rotate(19.4954)"/>
</clipPath>
</defs>
</svg>
